<mxfile host="app.diagrams.net" modified="2023-09-07T10:26:24.335Z" agent="Mozilla/5.0 (Windows NT 10.0; Win64; x64) AppleWebKit/537.36 (KHTML, like Gecko) Chrome/116.0.0.0 Safari/537.36" etag="PXEAe3A7ly9FQTPQJ82j" version="21.7.2" type="github">
  <diagram name="第 1 页" id="EAP46-pFnk08IEzOeeQu">
    <mxGraphModel dx="2049" dy="1083" grid="1" gridSize="10" guides="1" tooltips="1" connect="1" arrows="1" fold="1" page="1" pageScale="1" pageWidth="827" pageHeight="1169" math="0" shadow="0">
      <root>
        <mxCell id="0" />
        <mxCell id="1" parent="0" />
        <mxCell id="qEUN2LHwMngz8Y5ROjD_-1" value="" style="rounded=1;whiteSpace=wrap;html=1;" vertex="1" parent="1">
          <mxGeometry x="210" y="120" width="120" height="60" as="geometry" />
        </mxCell>
        <mxCell id="qEUN2LHwMngz8Y5ROjD_-2" value="&lt;font style=&quot;font-size: 14px;&quot;&gt;企微事件回调&lt;/font&gt;" style="rounded=1;whiteSpace=wrap;html=1;" vertex="1" parent="1">
          <mxGeometry x="480" y="270" width="120" height="40" as="geometry" />
        </mxCell>
        <mxCell id="qEUN2LHwMngz8Y5ROjD_-3" value="&lt;font style=&quot;font-size: 14px;&quot;&gt;用户匹配&lt;/font&gt;" style="rounded=1;whiteSpace=wrap;html=1;" vertex="1" parent="1">
          <mxGeometry x="480" y="320" width="120" height="40" as="geometry" />
        </mxCell>
        <mxCell id="qEUN2LHwMngz8Y5ROjD_-4" value="&lt;font style=&quot;font-size: 14px;&quot;&gt;用户标签管理&lt;/font&gt;" style="rounded=1;whiteSpace=wrap;html=1;" vertex="1" parent="1">
          <mxGeometry x="480" y="370" width="120" height="40" as="geometry" />
        </mxCell>
        <mxCell id="qEUN2LHwMngz8Y5ROjD_-5" value="&lt;span style=&quot;font-size: 14px;&quot;&gt;企微侧边栏&lt;/span&gt;" style="rounded=1;whiteSpace=wrap;html=1;" vertex="1" parent="1">
          <mxGeometry x="480" y="420" width="120" height="40" as="geometry" />
        </mxCell>
        <mxCell id="qEUN2LHwMngz8Y5ROjD_-6" value="&lt;span style=&quot;font-size: 14px;&quot;&gt;策略模版&lt;/span&gt;" style="rounded=1;whiteSpace=wrap;html=1;" vertex="1" parent="1">
          <mxGeometry x="480" y="530" width="120" height="40" as="geometry" />
        </mxCell>
        <mxCell id="qEUN2LHwMngz8Y5ROjD_-7" value="&lt;span style=&quot;font-size: 14px;&quot;&gt;自动化任务&lt;/span&gt;" style="rounded=1;whiteSpace=wrap;html=1;" vertex="1" parent="1">
          <mxGeometry x="480" y="585" width="120" height="40" as="geometry" />
        </mxCell>
        <mxCell id="qEUN2LHwMngz8Y5ROjD_-8" value="&lt;span style=&quot;font-size: 14px;&quot;&gt;企微会话存档&lt;/span&gt;" style="rounded=1;whiteSpace=wrap;html=1;" vertex="1" parent="1">
          <mxGeometry x="480" y="660" width="120" height="40" as="geometry" />
        </mxCell>
        <mxCell id="qEUN2LHwMngz8Y5ROjD_-9" value="&lt;span style=&quot;font-size: 14px;&quot;&gt;企微继承&lt;/span&gt;" style="rounded=1;whiteSpace=wrap;html=1;" vertex="1" parent="1">
          <mxGeometry x="480" y="730" width="120" height="40" as="geometry" />
        </mxCell>
        <mxCell id="qEUN2LHwMngz8Y5ROjD_-10" value="任务配置" style="rounded=0;whiteSpace=wrap;html=1;" vertex="1" diagramCategory="general" diagramName="Rectangle" parent="1">
          <mxGeometry x="810" y="200" width="600" height="50" as="geometry" />
        </mxCell>
        <mxCell id="qEUN2LHwMngz8Y5ROjD_-11" value="任务下发及查看" style="rounded=0;whiteSpace=wrap;html=1;" diagramCategory="general" diagramName="Rectangle" vertex="1" parent="1">
          <mxGeometry x="1512.5" y="200" width="590" height="50" as="geometry" />
        </mxCell>
        <mxCell id="qEUN2LHwMngz8Y5ROjD_-12" value="沟通信息" style="rounded=1;whiteSpace=wrap;html=1;" diagramName="RoundedRectangle" vertex="1" diagramCategory="general" parent="1">
          <mxGeometry x="810" y="480" width="80" height="40" as="geometry" />
        </mxCell>
        <mxCell id="qEUN2LHwMngz8Y5ROjD_-13" value="用户信息" style="rounded=1;whiteSpace=wrap;html=1;" diagramCategory="general" diagramName="RoundedRectangle" vertex="1" parent="1">
          <mxGeometry x="930" y="480" width="80" height="40" as="geometry" />
        </mxCell>
        <mxCell id="qEUN2LHwMngz8Y5ROjD_-14" value="物料信息" style="rounded=1;whiteSpace=wrap;html=1;" vertex="1" diagramCategory="general" diagramName="RoundedRectangle" parent="1">
          <mxGeometry x="1050" y="480" width="80" height="40" as="geometry" />
        </mxCell>
        <mxCell id="qEUN2LHwMngz8Y5ROjD_-15" value=".........." style="text;html=1;strokeColor=none;fillColor=none;align=center;verticalAlign=middle;whiteSpace=wrap;rounded=0;" diagramCategory="general" diagramName="text" vertex="1" parent="1">
          <mxGeometry x="1160" y="490" width="40" height="20" as="geometry" />
        </mxCell>
        <mxCell id="qEUN2LHwMngz8Y5ROjD_-16" value="" style="shape=mxgraph.flowchart.annotation_2;whiteSpace=wrap;html=1;fillColor=#ffffff;strokeColor=#000000;strokeWidth=2;direction=south;" vertex="1" diagramCategory="Flowchart" diagramName="Annotation2" parent="1">
          <mxGeometry x="831" y="340" width="349" height="100" as="geometry" />
        </mxCell>
        <mxCell id="qEUN2LHwMngz8Y5ROjD_-17" value="任务类型" style="rounded=1;whiteSpace=wrap;html=1;" vertex="1" diagramCategory="general" diagramName="RoundedRectangle" parent="1">
          <mxGeometry x="954" y="290" width="90" height="40" as="geometry" />
        </mxCell>
        <mxCell id="qEUN2LHwMngz8Y5ROjD_-18" value="起止时间" style="rounded=1;whiteSpace=wrap;html=1;" diagramCategory="general" diagramName="RoundedRectangle" vertex="1" parent="1">
          <mxGeometry x="1080" y="290" width="90" height="40" as="geometry" />
        </mxCell>
        <mxCell id="qEUN2LHwMngz8Y5ROjD_-19" value="任务名称" style="rounded=1;whiteSpace=wrap;html=1;" diagramCategory="general" diagramName="RoundedRectangle" vertex="1" parent="1">
          <mxGeometry x="820" y="290" width="90" height="40" as="geometry" />
        </mxCell>
        <mxCell id="qEUN2LHwMngz8Y5ROjD_-20" value="" style="shape=mxgraph.flowchart.transfer;whiteSpace=wrap;html=1;fillColor=#ffffff;strokeColor=#000000;strokeWidth=2" diagramCategory="Flowchart" diagramName="Transfer" vertex="1" parent="1">
          <mxGeometry x="1210" y="340" width="70" height="70" as="geometry" />
        </mxCell>
        <mxCell id="qEUN2LHwMngz8Y5ROjD_-21" style="edgeStyle=orthogonalEdgeStyle;rounded=0;orthogonalLoop=1;jettySize=auto;html=1;exitX=0.5;exitY=1;exitDx=0;exitDy=0;entryX=0.5;entryY=0;entryDx=0;entryDy=0;" edge="1" parent="1" source="qEUN2LHwMngz8Y5ROjD_-22" target="qEUN2LHwMngz8Y5ROjD_-24">
          <mxGeometry relative="1" as="geometry" />
        </mxCell>
        <mxCell id="qEUN2LHwMngz8Y5ROjD_-22" value="学期id" style="rounded=1;whiteSpace=wrap;html=1;" vertex="1" diagramCategory="general" diagramName="RoundedRectangle" parent="1">
          <mxGeometry x="1324" y="290" width="90" height="40" as="geometry" />
        </mxCell>
        <mxCell id="qEUN2LHwMngz8Y5ROjD_-23" style="edgeStyle=orthogonalEdgeStyle;rounded=0;orthogonalLoop=1;jettySize=auto;html=1;exitX=0.5;exitY=1;exitDx=0;exitDy=0;entryX=0.433;entryY=0;entryDx=0;entryDy=0;entryPerimeter=0;" edge="1" parent="1" source="qEUN2LHwMngz8Y5ROjD_-24" target="qEUN2LHwMngz8Y5ROjD_-25">
          <mxGeometry relative="1" as="geometry" />
        </mxCell>
        <mxCell id="qEUN2LHwMngz8Y5ROjD_-24" value="班级ID" style="rounded=1;whiteSpace=wrap;html=1;" vertex="1" diagramCategory="general" diagramName="RoundedRectangle" parent="1">
          <mxGeometry x="1324" y="380" width="90" height="40" as="geometry" />
        </mxCell>
        <mxCell id="qEUN2LHwMngz8Y5ROjD_-25" value="用户标签" style="rounded=1;whiteSpace=wrap;html=1;" diagramName="RoundedRectangle" vertex="1" diagramCategory="general" parent="1">
          <mxGeometry x="1330" y="480" width="90" height="40" as="geometry" />
        </mxCell>
        <mxCell id="qEUN2LHwMngz8Y5ROjD_-26" style="edgeStyle=orthogonalEdgeStyle;rounded=0;orthogonalLoop=1;jettySize=auto;html=1;exitX=0.5;exitY=1;exitDx=0;exitDy=0;" edge="1" parent="1" source="qEUN2LHwMngz8Y5ROjD_-28" target="qEUN2LHwMngz8Y5ROjD_-49">
          <mxGeometry relative="1" as="geometry" />
        </mxCell>
        <mxCell id="qEUN2LHwMngz8Y5ROjD_-27" value="下发" style="edgeLabel;html=1;align=center;verticalAlign=middle;resizable=0;points=[];" vertex="1" connectable="0" parent="qEUN2LHwMngz8Y5ROjD_-26">
          <mxGeometry x="-0.1" y="-2" relative="1" as="geometry">
            <mxPoint as="offset" />
          </mxGeometry>
        </mxCell>
        <mxCell id="qEUN2LHwMngz8Y5ROjD_-28" value="中台/系统" style="rounded=1;whiteSpace=wrap;html=1;" diagramName="RoundedRectangle" vertex="1" diagramCategory="general" parent="1">
          <mxGeometry x="1510" y="310" width="115" height="40" as="geometry" />
        </mxCell>
        <mxCell id="qEUN2LHwMngz8Y5ROjD_-29" style="edgeStyle=orthogonalEdgeStyle;rounded=0;orthogonalLoop=1;jettySize=auto;html=1;exitX=0.5;exitY=1;exitDx=0;exitDy=0;entryX=0.5;entryY=0;entryDx=0;entryDy=0;" edge="1" parent="1" source="qEUN2LHwMngz8Y5ROjD_-31" target="qEUN2LHwMngz8Y5ROjD_-41">
          <mxGeometry relative="1" as="geometry" />
        </mxCell>
        <mxCell id="qEUN2LHwMngz8Y5ROjD_-30" value="下发" style="edgeLabel;html=1;align=center;verticalAlign=middle;resizable=0;points=[];" vertex="1" connectable="0" parent="qEUN2LHwMngz8Y5ROjD_-29">
          <mxGeometry x="-0.15" relative="1" as="geometry">
            <mxPoint as="offset" />
          </mxGeometry>
        </mxCell>
        <mxCell id="qEUN2LHwMngz8Y5ROjD_-31" value="组长" style="rounded=1;whiteSpace=wrap;html=1;" vertex="1" diagramCategory="general" diagramName="RoundedRectangle" parent="1">
          <mxGeometry x="1750" y="310" width="115" height="40" as="geometry" />
        </mxCell>
        <mxCell id="qEUN2LHwMngz8Y5ROjD_-32" value="组员" style="rounded=1;whiteSpace=wrap;html=1;" diagramName="RoundedRectangle" vertex="1" diagramCategory="general" parent="1">
          <mxGeometry x="1985" y="310" width="115" height="40" as="geometry" />
        </mxCell>
        <mxCell id="qEUN2LHwMngz8Y5ROjD_-33" style="edgeStyle=orthogonalEdgeStyle;rounded=0;orthogonalLoop=1;jettySize=auto;html=1;exitX=0.5;exitY=1;exitDx=0;exitDy=0;entryX=0.5;entryY=0;entryDx=0;entryDy=0;" edge="1" parent="1" source="qEUN2LHwMngz8Y5ROjD_-34" target="qEUN2LHwMngz8Y5ROjD_-36">
          <mxGeometry relative="1" as="geometry" />
        </mxCell>
        <mxCell id="qEUN2LHwMngz8Y5ROjD_-34" value="任务id " style="rounded=1;whiteSpace=wrap;html=1;" diagramName="RoundedRectangle" vertex="1" diagramCategory="general" parent="1">
          <mxGeometry x="1985" y="390" width="115" height="40" as="geometry" />
        </mxCell>
        <mxCell id="qEUN2LHwMngz8Y5ROjD_-35" style="edgeStyle=orthogonalEdgeStyle;rounded=0;orthogonalLoop=1;jettySize=auto;html=1;exitX=0.5;exitY=1;exitDx=0;exitDy=0;entryX=0.5;entryY=0;entryDx=0;entryDy=0;" edge="1" parent="1" source="qEUN2LHwMngz8Y5ROjD_-36" target="qEUN2LHwMngz8Y5ROjD_-37">
          <mxGeometry relative="1" as="geometry" />
        </mxCell>
        <mxCell id="qEUN2LHwMngz8Y5ROjD_-36" value="学期id" style="rounded=1;whiteSpace=wrap;html=1;" vertex="1" diagramCategory="general" diagramName="RoundedRectangle" parent="1">
          <mxGeometry x="1985" y="480" width="115" height="40" as="geometry" />
        </mxCell>
        <mxCell id="qEUN2LHwMngz8Y5ROjD_-37" value="userid" style="rounded=1;whiteSpace=wrap;html=1;" diagramCategory="general" diagramName="RoundedRectangle" vertex="1" parent="1">
          <mxGeometry x="1985" y="560" width="115" height="40" as="geometry" />
        </mxCell>
        <mxCell id="qEUN2LHwMngz8Y5ROjD_-38" style="edgeStyle=orthogonalEdgeStyle;rounded=0;orthogonalLoop=1;jettySize=auto;html=1;exitX=0.5;exitY=1;exitDx=0;exitDy=0;entryX=0.5;entryY=0;entryDx=0;entryDy=0;" edge="1" parent="1" source="qEUN2LHwMngz8Y5ROjD_-41" target="qEUN2LHwMngz8Y5ROjD_-43">
          <mxGeometry relative="1" as="geometry" />
        </mxCell>
        <mxCell id="qEUN2LHwMngz8Y5ROjD_-39" style="edgeStyle=orthogonalEdgeStyle;rounded=0;orthogonalLoop=1;jettySize=auto;html=1;exitX=1;exitY=0.5;exitDx=0;exitDy=0;" edge="1" parent="1" source="qEUN2LHwMngz8Y5ROjD_-41">
          <mxGeometry relative="1" as="geometry">
            <mxPoint x="1980" y="410" as="targetPoint" />
          </mxGeometry>
        </mxCell>
        <mxCell id="qEUN2LHwMngz8Y5ROjD_-40" value="" style="edgeLabel;html=1;align=center;verticalAlign=middle;resizable=0;points=[];" connectable="0" vertex="1" parent="qEUN2LHwMngz8Y5ROjD_-39">
          <mxGeometry x="-0.1826" y="3" relative="1" as="geometry">
            <mxPoint as="offset" />
          </mxGeometry>
        </mxCell>
        <mxCell id="qEUN2LHwMngz8Y5ROjD_-41" value="任务id " style="rounded=1;whiteSpace=wrap;html=1;" vertex="1" diagramCategory="general" diagramName="RoundedRectangle" parent="1">
          <mxGeometry x="1750" y="390" width="115" height="40" as="geometry" />
        </mxCell>
        <mxCell id="qEUN2LHwMngz8Y5ROjD_-42" style="edgeStyle=orthogonalEdgeStyle;rounded=0;orthogonalLoop=1;jettySize=auto;html=1;exitX=0.5;exitY=1;exitDx=0;exitDy=0;entryX=0.5;entryY=0;entryDx=0;entryDy=0;" edge="1" parent="1" source="qEUN2LHwMngz8Y5ROjD_-43" target="qEUN2LHwMngz8Y5ROjD_-44">
          <mxGeometry relative="1" as="geometry" />
        </mxCell>
        <mxCell id="qEUN2LHwMngz8Y5ROjD_-43" value="学期id" style="rounded=1;whiteSpace=wrap;html=1;" diagramCategory="general" diagramName="RoundedRectangle" vertex="1" parent="1">
          <mxGeometry x="1750" y="480" width="115" height="40" as="geometry" />
        </mxCell>
        <mxCell id="qEUN2LHwMngz8Y5ROjD_-44" value="组员id" style="rounded=1;whiteSpace=wrap;html=1;" vertex="1" diagramCategory="general" diagramName="RoundedRectangle" parent="1">
          <mxGeometry x="1750" y="560" width="115" height="40" as="geometry" />
        </mxCell>
        <mxCell id="qEUN2LHwMngz8Y5ROjD_-45" value="组员id" style="rounded=1;whiteSpace=wrap;html=1;" vertex="1" diagramCategory="general" diagramName="RoundedRectangle" parent="1">
          <mxGeometry x="1750" y="630" width="115" height="40" as="geometry" />
        </mxCell>
        <mxCell id="qEUN2LHwMngz8Y5ROjD_-46" style="edgeStyle=orthogonalEdgeStyle;rounded=0;orthogonalLoop=1;jettySize=auto;html=1;exitX=0.5;exitY=1;exitDx=0;exitDy=0;entryX=0.5;entryY=0;entryDx=0;entryDy=0;" edge="1" parent="1" source="qEUN2LHwMngz8Y5ROjD_-49" target="qEUN2LHwMngz8Y5ROjD_-51">
          <mxGeometry relative="1" as="geometry" />
        </mxCell>
        <mxCell id="qEUN2LHwMngz8Y5ROjD_-47" style="edgeStyle=orthogonalEdgeStyle;rounded=0;orthogonalLoop=1;jettySize=auto;html=1;exitX=1;exitY=0.5;exitDx=0;exitDy=0;" edge="1" parent="1" source="qEUN2LHwMngz8Y5ROjD_-49" target="qEUN2LHwMngz8Y5ROjD_-41">
          <mxGeometry relative="1" as="geometry" />
        </mxCell>
        <mxCell id="qEUN2LHwMngz8Y5ROjD_-48" value="修改" style="edgeLabel;html=1;align=center;verticalAlign=middle;resizable=0;points=[];" vertex="1" connectable="0" parent="qEUN2LHwMngz8Y5ROjD_-47">
          <mxGeometry x="-0.072" y="2" relative="1" as="geometry">
            <mxPoint as="offset" />
          </mxGeometry>
        </mxCell>
        <mxCell id="qEUN2LHwMngz8Y5ROjD_-49" value="任务id " style="rounded=1;whiteSpace=wrap;html=1;" vertex="1" diagramCategory="general" diagramName="RoundedRectangle" parent="1">
          <mxGeometry x="1510" y="390" width="115" height="40" as="geometry" />
        </mxCell>
        <mxCell id="qEUN2LHwMngz8Y5ROjD_-50" style="edgeStyle=orthogonalEdgeStyle;rounded=0;orthogonalLoop=1;jettySize=auto;html=1;exitX=0.5;exitY=1;exitDx=0;exitDy=0;entryX=0.5;entryY=0;entryDx=0;entryDy=0;" edge="1" parent="1" source="qEUN2LHwMngz8Y5ROjD_-51" target="qEUN2LHwMngz8Y5ROjD_-52">
          <mxGeometry relative="1" as="geometry" />
        </mxCell>
        <mxCell id="qEUN2LHwMngz8Y5ROjD_-51" value="学期id" style="rounded=1;whiteSpace=wrap;html=1;" vertex="1" diagramCategory="general" diagramName="RoundedRectangle" parent="1">
          <mxGeometry x="1510" y="480" width="115" height="40" as="geometry" />
        </mxCell>
        <mxCell id="qEUN2LHwMngz8Y5ROjD_-52" value="组长id" style="rounded=1;whiteSpace=wrap;html=1;" vertex="1" diagramCategory="general" diagramName="RoundedRectangle" parent="1">
          <mxGeometry x="1510" y="560" width="115" height="40" as="geometry" />
        </mxCell>
      </root>
    </mxGraphModel>
  </diagram>
</mxfile>
